<?xml version="1.0" standalone="no"?>
<!DOCTYPE svg PUBLIC "-//W3C//DTD SVG 20010904//EN"
 "http://www.w3.org/TR/2001/REC-SVG-20010904/DTD/svg10.dtd">
<svg version="1.0" xmlns="http://www.w3.org/2000/svg"
 width="512.000000pt" height="512.000000pt" viewBox="0 0 512.000000 512.000000"
 preserveAspectRatio="xMidYMid meet">
<metadata>
Created by potrace 1.11, written by Peter Selinger 2001-2013
</metadata>
<g transform="translate(0.000000,512.000000) scale(0.100000,-0.100000)"
fill="#000000" stroke="none">
<path d="M4258 5115 c-2 -1 -46 -5 -98 -9 -684 -45 -1462 -285 -2095 -646
-235 -134 -614 -399 -751 -525 -6 -5 -44 -39 -85 -74 -94 -83 -367 -355 -444
-445 -33 -37 -65 -73 -70 -80 -23 -24 -192 -242 -206 -266 -25 -39 -42 -127
-36 -180 7 -60 45 -135 89 -177 32 -30 106 -82 498 -348 96 -65 177 -120 179
-122 2 -1 5 -57 5 -122 1 -105 4 -124 22 -148 12 -15 30 -30 40 -31 33 -6 37
-18 38 -116 1 -85 -1 -96 -16 -96 -28 0 -77 -52 -81 -85 -2 -16 2 -42 10 -57
14 -28 65 -62 77 -51 6 7 7 2 9 -116 2 -74 -8 -101 -37 -101 -7 0 -23 -12 -37
-26 l-24 -26 -1 -289 c-1 -160 3 -313 8 -340 23 -128 137 -226 271 -234 132
-8 262 90 292 219 8 36 12 217 13 611 0 308 1 570 1 582 1 21 14 14 131 -65
l129 -87 1 -322 c0 -297 2 -326 20 -376 72 -193 328 -248 474 -101 67 67 88
131 87 276 0 65 2 118 5 118 8 0 379 -254 382 -262 2 -4 9 -8 16 -8 7 0 21 -8
32 -17 32 -29 173 -123 183 -123 5 0 11 -4 13 -8 2 -5 36 -31 76 -57 l72 -48
1 -231 c1 -267 1 -274 35 -344 56 -115 200 -181 328 -149 120 30 213 143 218
266 2 36 6 50 15 47 7 -3 113 -74 235 -157 123 -84 238 -157 256 -163 38 -11
88 9 110 45 10 16 13 519 13 2412 0 2609 3 2442 -56 2528 -59 85 -134 121
-257 124 -48 2 -88 2 -90 0z"/>
</g>
</svg>
